<mxfile host="app.diagrams.net" modified="2025-02-10T00:00:00.000Z" agent="Python Script" version="15.7.7"><diagram id="diagramId" name="Page-1"><mxGraphModel dx="1264" dy="684" grid="1" gridSize="10" guides="1" tooltips="1" connect="1" arrows="1" fold="1" page="1" pageScale="1" pageWidth="850" pageHeight="1100" math="0"><root><mxCell id="0" /><mxCell id="1" parent="0" /><mxCell id="2" value="Start" style="ellipse;whiteSpace=wrap;html=1;aspect=fixed;fillColor=#000000;fontColor=#ffffff;" vertex="1" parent="1"><mxGeometry x="80.0" y="60" width="40" height="40" as="geometry" /></mxCell><mxCell id="3" value="Aktion" style="rounded=1;whiteSpace=wrap;html=1;strokeColor=none;fillColor=#DCE9F1;" vertex="1" parent="1"><mxGeometry x="40.0" y="140" width="120" height="40" as="geometry" /></mxCell><mxCell id="4" value="Aktion2" style="rounded=1;whiteSpace=wrap;html=1;strokeColor=none;fillColor=#DCE9F1;" vertex="1" parent="1"><mxGeometry x="40.0" y="220" width="120" height="40" as="geometry" /></mxCell><mxCell id="5" value="Bedingung" style="shape=hexagon;perimeter=hexagonPerimeter2;whiteSpace=wrap;html=1;fixedSize=1;align=center;verticalAlign=middle;fontFamily=Helvetica;fontSize=12;fontColor=#ffffff;fillColor=#00A5E1;strokeColor=none;size=10;" vertex="1" parent="1"><mxGeometry x="60.0" y="300" width="80" height="40" as="geometry" /></mxCell><mxCell id="6" value="Aktion3" style="rounded=1;whiteSpace=wrap;html=1;strokeColor=none;fillColor=#DCE9F1;" vertex="1" parent="1"><mxGeometry x="40.0" y="380" width="120" height="40" as="geometry" /></mxCell><mxCell id="7" value="Aktion4" style="rounded=1;whiteSpace=wrap;html=1;strokeColor=none;fillColor=#DCE9F1;" vertex="1" parent="1"><mxGeometry x="240.0" y="300" width="120" height="40" as="geometry" /></mxCell><mxCell id="8" value="Bedingung2" style="shape=hexagon;perimeter=hexagonPerimeter2;whiteSpace=wrap;html=1;fixedSize=1;align=center;verticalAlign=middle;fontFamily=Helvetica;fontSize=12;fontColor=#ffffff;fillColor=#00A5E1;strokeColor=none;size=10;" vertex="1" parent="1"><mxGeometry x="260.0" y="380" width="80" height="40" as="geometry" /></mxCell><mxCell id="9" value="Aktion5" style="rounded=1;whiteSpace=wrap;html=1;strokeColor=none;fillColor=#DCE9F1;" vertex="1" parent="1"><mxGeometry x="240.0" y="460" width="120" height="40" as="geometry" /></mxCell><mxCell id="10" value="Aktion6" style="rounded=1;whiteSpace=wrap;html=1;strokeColor=none;fillColor=#DCE9F1;" vertex="1" parent="1"><mxGeometry x="440.0" y="380" width="120" height="40" as="geometry" /></mxCell><mxCell id="11" value="Merge" style="rhombus;whiteSpace=wrap;html=1;strokeColor=none;fillColor=#00A5E1;fontColor=#ffffff;" vertex="1" parent="1"><mxGeometry x="275.0" y="540" width="50" height="50" as="geometry" /></mxCell><mxCell id="12" value="Merge" style="rhombus;whiteSpace=wrap;html=1;strokeColor=none;fillColor=#00A5E1;fontColor=#ffffff;" vertex="1" parent="1"><mxGeometry x="75.0" y="620" width="50" height="50" as="geometry" /></mxCell><mxCell id="13" value="Stop" style="ellipse;whiteSpace=wrap;html=1;aspect=fixed;fillColor=#000000;fontColor=#ffffff;" vertex="1" parent="1"><mxGeometry x="80.0" y="700" width="40" height="40" as="geometry" /></mxCell><mxCell id="e1" value="" edge="1" source="2" target="3" parent="1" style="edgeStyle=elbowEdgeStyle;elbow=vertical;strokeWidth=1.5;"><mxGeometry relative="1" as="geometry" /></mxCell><mxCell id="e2" value="" edge="1" source="3" target="4" parent="1" style="edgeStyle=elbowEdgeStyle;elbow=vertical;strokeWidth=1.5;"><mxGeometry relative="1" as="geometry" /></mxCell><mxCell id="e3" value="" edge="1" source="4" target="5" parent="1" style="edgeStyle=elbowEdgeStyle;elbow=vertical;strokeWidth=1.5;"><mxGeometry relative="1" as="geometry" /></mxCell><mxCell id="e4" value="Ja" edge="1" source="5" target="6" parent="1" style="edgeStyle=elbowEdgeStyle;elbow=vertical;strokeWidth=1.5;"><mxGeometry relative="1" as="geometry" /></mxCell><mxCell id="e5" value="Nein" edge="1" source="5" target="7" parent="1" style="edgeStyle=elbowEdgeStyle;elbow=vertical;strokeWidth=1.5;"><mxGeometry relative="1" as="geometry" /></mxCell><mxCell id="e6" value="" edge="1" source="7" target="8" parent="1" style="edgeStyle=elbowEdgeStyle;elbow=vertical;strokeWidth=1.5;"><mxGeometry relative="1" as="geometry" /></mxCell><mxCell id="e7" value="Ja2" edge="1" source="8" target="9" parent="1" style="edgeStyle=elbowEdgeStyle;elbow=vertical;strokeWidth=1.5;"><mxGeometry relative="1" as="geometry" /></mxCell><mxCell id="e8" value="Nein2" edge="1" source="8" target="10" parent="1" style="edgeStyle=elbowEdgeStyle;elbow=vertical;strokeWidth=1.5;"><mxGeometry relative="1" as="geometry" /></mxCell><mxCell id="e9" value="" edge="1" source="9" target="11" parent="1" style="edgeStyle=elbowEdgeStyle;elbow=vertical;strokeWidth=1.5;"><mxGeometry relative="1" as="geometry" /></mxCell><mxCell id="e10" value="" edge="1" source="10" target="11" parent="1" style="edgeStyle=elbowEdgeStyle;elbow=vertical;strokeWidth=1.5;"><mxGeometry relative="1" as="geometry" /></mxCell><mxCell id="e11" value="" edge="1" source="6" target="12" parent="1" style="edgeStyle=elbowEdgeStyle;elbow=vertical;strokeWidth=1.5;"><mxGeometry relative="1" as="geometry" /></mxCell><mxCell id="e12" value="" edge="1" source="11" target="12" parent="1" style="edgeStyle=elbowEdgeStyle;elbow=vertical;strokeWidth=1.5;"><mxGeometry relative="1" as="geometry" /></mxCell><mxCell id="e13" value="" edge="1" source="12" target="13" parent="1" style="edgeStyle=elbowEdgeStyle;elbow=vertical;strokeWidth=1.5;"><mxGeometry relative="1" as="geometry" /></mxCell></root></mxGraphModel></diagram></mxfile>